<svg xmlns="http://www.w3.org/2000/svg" viewBox="0 0 800 560" width="800" height="560">
<style>text{font-family:Helvetica,Arial,sans-serif;}</style>
<rect width="800" height="560" fill="#fff" stroke="#999" stroke-width="1"/>
<line x1="0" y1="30" x2="800" y2="30" stroke="#333" stroke-width="1"/>
<text x="15" y="20" font-size="12" fill="#333">InterviewAI</text>
<text x="770" y="20" text-anchor="end" font-size="10" fill="#999">[Settings]</text>
<line x1="140" y1="30" x2="140" y2="560" stroke="#333" stroke-width="1"/>
<text x="70" y="55" text-anchor="middle" font-size="11" fill="#333" font-weight="bold">▸ Dashboard</text>
<text x="70" y="83" text-anchor="middle" font-size="11" fill="#999">  Practice</text>
<text x="70" y="111" text-anchor="middle" font-size="11" fill="#999">  Review</text>
<text x="70" y="139" text-anchor="middle" font-size="11" fill="#999">  History</text>
<text x="70" y="167" text-anchor="middle" font-size="11" fill="#999">  Settings</text>
<rect x="160" y="45" width="620" height="55" fill="none" stroke="#333" stroke-width="1"/>
<text x="175" y="68" font-size="12" fill="#333">Welcome back, Kevin!</text>
<text x="175" y="86" font-size="10" fill="#666">Start Your First Practice - 3 quick steps</text>
<text x="175" y="125" font-size="11" fill="#333" font-weight="bold">Recent Sessions</text>
<rect x="175" y="135" width="190" height="55" fill="none" stroke="#333" stroke-width="1"/>
<text x="185" y="155" font-size="11" fill="#333">React Dev</text>
<text x="185" y="172" font-size="10" fill="#666">7/10  Apr 16</text>
<rect x="380" y="135" width="190" height="55" fill="none" stroke="#333" stroke-width="1"/>
<text x="390" y="155" font-size="11" fill="#333">System Design</text>
<text x="390" y="172" font-size="10" fill="#666">5/10  Apr 14</text>
<rect x="585" y="135" width="190" height="55" fill="none" stroke="#333" stroke-width="1"/>
<text x="595" y="155" font-size="11" fill="#333">Behavioral</text>
<text x="595" y="172" font-size="10" fill="#666">8/10  Apr 12</text>
<text x="175" y="220" font-size="11" fill="#333" font-weight="bold">Score Trends</text>
<rect x="175" y="230" width="300" height="90" fill="none" stroke="#333" stroke-width="1"/>
<text x="185" y="251" font-size="9" fill="#666">Structure</text>
<rect x="245" y="243" width="96" height="10" fill="none" stroke="#333" stroke-width="0.8"/>
<text x="185" y="269" font-size="9" fill="#666">Depth</text>
<rect x="245" y="261" width="48" height="10" fill="none" stroke="#333" stroke-width="0.8"/>
<text x="185" y="287" font-size="9" fill="#666">Relevance</text>
<rect x="245" y="279" width="84" height="10" fill="none" stroke="#333" stroke-width="0.8"/>
<text x="185" y="305" font-size="9" fill="#666">Clarity</text>
<rect x="245" y="297" width="72" height="10" fill="none" stroke="#333" stroke-width="0.8"/>
<text x="495" y="220" font-size="11" fill="#333" font-weight="bold">Next Focus</text>
<rect x="495" y="230" width="285" height="90" fill="none" stroke="#333" stroke-width="1"/>
<text x="505" y="252" font-size="10" fill="#333">Technical Depth - Score: 4/10</text>
<text x="505" y="268" font-size="9" fill="#666">Focus on system design</text>
<rect x="505" y="280" width="100" height="22" fill="none" stroke="#333" stroke-width="1"/>
<text x="555" y="295" text-anchor="middle" font-size="9" fill="#333">Start Session</text>
<text x="400" y="545" text-anchor="middle" font-size="9" fill="#bbb">Screen 1: Dashboard</text>
</svg>