<svg xmlns="http://www.w3.org/2000/svg" viewBox="0 0 800 530" width="800" height="530">
<style>text{font-family:Helvetica,Arial,sans-serif;}</style>
<rect width="800" height="530" fill="#fff" stroke="#999" stroke-width="1"/>
<line x1="0" y1="30" x2="800" y2="30" stroke="#333" stroke-width="1"/>
<text x="15" y="20" font-size="12" fill="#333">InterviewAI</text>
<line x1="140" y1="30" x2="140" y2="530" stroke="#333" stroke-width="1"/>
<text x="70" y="55" text-anchor="middle" font-size="11" fill="#999">  Dashboard</text>
<text x="70" y="83" text-anchor="middle" font-size="11" fill="#333" font-weight="bold">▸ Practice</text>
<text x="70" y="111" text-anchor="middle" font-size="11" fill="#999">  Review</text>
<text x="70" y="139" text-anchor="middle" font-size="11" fill="#999">  History</text>
<text x="70" y="167" text-anchor="middle" font-size="11" fill="#999">  Settings</text>
<text x="160" y="50" font-size="10" fill="#999">Practice &#x3E; Feedback</text>
<text x="160" y="72" font-size="10" fill="#999">Question 3 of 6</text>
<text x="160" y="88" font-size="11" fill="#333">Describe your experience with React hooks.</text>
<rect x="160" y="98" width="620" height="45" fill="none" stroke="#333" stroke-width="1"/>
<text x="175" y="115" font-size="9" fill="#999">Your Answer</text>
<text x="175" y="132" font-size="10" fill="#666">I have used useState and useEffect...</text>
<rect x="160" y="155" width="620" height="140" fill="none" stroke="#333" stroke-width="1.5"/>
<text x="175" y="178" font-size="16" fill="#333" font-weight="bold">Score: 6/10</text>
<text x="290" y="178" font-size="9" fill="#666">Confidence: Medium</text>
<text x="175" y="200" font-size="10" fill="#333" font-weight="bold">Reasoning:</text>
<text x="190" y="218" font-size="10" fill="#666">- Lacks specific project example</text>
<text x="190" y="236" font-size="10" fill="#666">- No mention of useReducer/Redux</text>
<text x="190" y="254" font-size="10" fill="#666">- Good explanation of useEffect</text>
<rect x="175" y="275" width="45" height="18" fill="none" stroke="#333" stroke-width="1"/>
<text x="197" y="288" text-anchor="middle" font-size="9" fill="#333">Flag</text>
<rect x="230" y="275" width="95" height="18" fill="none" stroke="#333" stroke-width="1"/>
<text x="277" y="288" text-anchor="middle" font-size="9" fill="#333">Override</text>
<rect x="335" y="275" width="50" height="18" fill="none" stroke="#333" stroke-width="1"/>
<text x="360" y="288" text-anchor="middle" font-size="9" fill="#333">Undo</text>
<rect x="160" y="305" width="620" height="25" fill="none" stroke="#333" stroke-width="1"/>
<text x="175" y="322" font-size="10" fill="#333">View Strong Answer Example</text>
<rect x="160" y="340" width="620" height="35" fill="none" stroke="#333" stroke-width="1"/>
<text x="175" y="360" font-size="10" fill="#666">In my e-commerce project, I used useReducer...</text>
<rect x="480" y="395" width="130" height="26" fill="none" stroke="#333" stroke-width="1"/>
<text x="545" y="412" text-anchor="middle" font-size="10" fill="#333">Revise Answer</text>
<rect x="625" y="395" width="155" height="26" fill="none" stroke="#333" stroke-width="1"/>
<text x="702" y="412" text-anchor="middle" font-size="10" fill="#333">Next Question &#x2192;</text>
<text x="400" y="510" text-anchor="middle" font-size="9" fill="#bbb">Screen 3: Practice - Feedback</text>
</svg>