<svg xmlns="http://www.w3.org/2000/svg" viewBox="0 0 800 480" width="800" height="480">
<style>text{font-family:Helvetica,Arial,sans-serif;}</style>
<rect width="800" height="480" fill="#fff" stroke="#999" stroke-width="1"/>
<line x1="0" y1="30" x2="800" y2="30" stroke="#333" stroke-width="1"/>
<text x="15" y="20" font-size="12" fill="#333">InterviewAI</text>
<line x1="140" y1="30" x2="140" y2="480" stroke="#333" stroke-width="1"/>
<text x="70" y="55" text-anchor="middle" font-size="11" fill="#999">  Dashboard</text>
<text x="70" y="83" text-anchor="middle" font-size="11" fill="#999">  Practice</text>
<text x="70" y="111" text-anchor="middle" font-size="11" fill="#333" font-weight="bold">▸ Review</text>
<text x="70" y="139" text-anchor="middle" font-size="11" fill="#999">  History</text>
<text x="70" y="167" text-anchor="middle" font-size="11" fill="#999">  Settings</text>
<text x="160" y="50" font-size="10" fill="#999">Review &#x3E; Upload Recording</text>
<rect x="160" y="60" width="620" height="60" fill="none" stroke="#333" stroke-width="1" stroke-dasharray="6,3"/>
<text x="470" y="90" text-anchor="middle" font-size="11" fill="#333">Drag and drop or [Browse]</text>
<text x="470" y="108" text-anchor="middle" font-size="9" fill="#999">MP4, WAV, M4A - max 500MB</text>
<text x="160" y="143" font-size="10" fill="#666">Warning: Audio Quality Low</text>
<text x="160" y="168" font-size="11" fill="#333">Extraction Progress</text>
<rect x="160" y="178" width="620" height="12" fill="none" stroke="#333" stroke-width="1"/>
<rect x="160" y="178" width="372" height="12" fill="#ccc"/>
<text x="790" y="188" text-anchor="end" font-size="9" fill="#666">60%</text>
<text x="160" y="215" font-size="11" fill="#333">Extracted Q&amp;A (3 of 5 pairs)</text>
<rect x="160" y="230" width="620" height="50" fill="none" stroke="#333" stroke-width="1"/>
<text x="175" y="248" font-size="10" fill="#333">Q1: Tell me about yourself</text>
<text x="175" y="266" font-size="10" fill="#666">A: I am a CS grad from HKU...</text>
<rect x="160" y="290" width="620" height="50" fill="none" stroke="#333" stroke-width="1"/>
<text x="175" y="308" font-size="10" fill="#333">Q2: Why this company?</text>
<text x="175" y="326" font-size="10" fill="#666">A: I am drawn to the startup...</text>
<rect x="570" y="370" width="90" height="26" fill="none" stroke="#333" stroke-width="1"/>
<text x="615" y="387" text-anchor="middle" font-size="10" fill="#333">Retry</text>
<rect x="670" y="370" width="110" height="26" fill="none" stroke="#333" stroke-width="1.5"/>
<text x="725" y="387" text-anchor="middle" font-size="10" fill="#333">Generate Summary</text>
<text x="400" y="460" text-anchor="middle" font-size="9" fill="#bbb">Screen 4: Review - Upload and Analysis</text>
</svg>