<svg xmlns="http://www.w3.org/2000/svg" viewBox="0 0 1200 700" width="1200" height="700">
<style>
text { font-family: 'Helvetica Neue', Helvetica, Arial, 'PingFang SC', 'Microsoft YaHei', sans-serif; }
.title { fill:#111827; font-size:20px; font-weight:600; }
.subtitle { fill:#6b7280; font-size:12px; }
.label { fill:#111827; font-size:13px; font-weight:600; }
.small { fill:#6b7280; font-size:11px; }
.tiny { fill:#6b7280; font-size:10px; }
.cell { fill:#111827; font-size:12px; }
</style>
<defs>
<marker id="arrow-blue" markerWidth="10" markerHeight="7" refX="9" refY="3.5" orient="auto"><polygon points="0 0,10 3.5,0 7" fill="#2563eb"/></marker>
<marker id="arrow-red" markerWidth="10" markerHeight="7" refX="9" refY="3.5" orient="auto"><polygon points="0 0,10 3.5,0 7" fill="#dc2626"/></marker>
<marker id="arrow-green" markerWidth="10" markerHeight="7" refX="9" refY="3.5" orient="auto"><polygon points="0 0,10 3.5,0 7" fill="#16a34a"/></marker>
<marker id="arrow-purple" markerWidth="10" markerHeight="7" refX="9" refY="3.5" orient="auto"><polygon points="0 0,10 3.5,0 7" fill="#9333ea"/></marker>
</defs>
<rect width="1200" height="700" fill="#ffffff"/>
<text x="600" y="34" text-anchor="middle" class="title">Figure D2-2 — Information Architecture for Tab-3 Prototype</text>
<text x="600" y="56" text-anchor="middle" class="subtitle">Report-contained IA: primary modules, nested task states, and recovery routes</text>
<rect x="500" y="80" width="200" height="54" rx="10" fill="#eff6ff" stroke="#bfdbfe" stroke-width="2"/>
<text x="600" y="113" text-anchor="middle" class="label">InterviewAI</text>
<rect x="80" y="170" width="160" height="58" rx="9" fill="#ffffff" stroke="#d1d5db" stroke-width="1.7"/>
<text x="160" y="205" text-anchor="middle" class="label">Dashboard</text>
<line x1="600" y1="134" x2="160" y2="170" stroke="#2563eb" stroke-width="1.5" fill="none" marker-end="url(#arrow-blue)"/>
<rect x="285" y="160" width="160" height="58" rx="9" fill="#fff7ed" stroke="#fed7aa" stroke-width="1.7"/>
<text x="365" y="195" text-anchor="middle" class="label">Practice</text>
<line x1="600" y1="134" x2="365" y2="160" stroke="#2563eb" stroke-width="1.5" fill="none" marker-end="url(#arrow-blue)"/>
<rect x="505" y="160" width="160" height="58" rx="9" fill="#eff6ff" stroke="#bfdbfe" stroke-width="1.7"/>
<text x="585" y="195" text-anchor="middle" class="label">Review</text>
<line x1="600" y1="134" x2="585" y2="160" stroke="#2563eb" stroke-width="1.5" fill="none" marker-end="url(#arrow-blue)"/>
<rect x="725" y="170" width="160" height="58" rx="9" fill="#f0fdf4" stroke="#bbf7d0" stroke-width="1.7"/>
<text x="805" y="205" text-anchor="middle" class="label">History</text>
<line x1="600" y1="134" x2="805" y2="170" stroke="#2563eb" stroke-width="1.5" fill="none" marker-end="url(#arrow-blue)"/>
<rect x="925" y="170" width="160" height="58" rx="9" fill="#faf5ff" stroke="#e9d5ff" stroke-width="1.7"/>
<text x="1005" y="205" text-anchor="middle" class="label">Settings</text>
<line x1="600" y1="134" x2="1005" y2="170" stroke="#2563eb" stroke-width="1.5" fill="none" marker-end="url(#arrow-blue)"/>
<rect x="210" y="300" width="110" height="42" rx="7" fill="#ffffff" stroke="#d1d5db" stroke-width="1.5"/>
<text x="265" y="326" text-anchor="middle" class="small">Job/JD</text>
<rect x="360" y="300" width="110" height="42" rx="7" fill="#ffffff" stroke="#d1d5db" stroke-width="1.5"/>
<text x="415" y="326" text-anchor="middle" class="small">Resume</text>
<line x1="320" y1="321" x2="360" y2="321" stroke="#2563eb" stroke-width="1.5" fill="none" marker-end="url(#arrow-blue)"/>
<rect x="510" y="300" width="110" height="42" rx="7" fill="#ffffff" stroke="#d1d5db" stroke-width="1.5"/>
<text x="565" y="326" text-anchor="middle" class="small">Questions</text>
<line x1="470" y1="321" x2="510" y2="321" stroke="#2563eb" stroke-width="1.5" fill="none" marker-end="url(#arrow-blue)"/>
<rect x="660" y="300" width="110" height="42" rx="7" fill="#ffffff" stroke="#d1d5db" stroke-width="1.5"/>
<text x="715" y="326" text-anchor="middle" class="small">Answer</text>
<line x1="620" y1="321" x2="660" y2="321" stroke="#2563eb" stroke-width="1.5" fill="none" marker-end="url(#arrow-blue)"/>
<rect x="810" y="300" width="110" height="42" rx="7" fill="#ffffff" stroke="#d1d5db" stroke-width="1.5"/>
<text x="865" y="326" text-anchor="middle" class="small">Feedback</text>
<line x1="770" y1="321" x2="810" y2="321" stroke="#2563eb" stroke-width="1.5" fill="none" marker-end="url(#arrow-blue)"/>
<path d="M 365 218 L 265 300" stroke="#2563eb" stroke-width="1.5" fill="none" marker-end="url(#arrow-blue)"/>
<rect x="360" y="405" width="110" height="42" rx="7" fill="#ffffff" stroke="#d1d5db" stroke-width="1.5"/>
<text x="415" y="431" text-anchor="middle" class="small">Upload</text>
<rect x="510" y="405" width="110" height="42" rx="7" fill="#ffffff" stroke="#d1d5db" stroke-width="1.5"/>
<text x="565" y="431" text-anchor="middle" class="small">Extract</text>
<line x1="470" y1="426" x2="510" y2="426" stroke="#2563eb" stroke-width="1.5" fill="none" marker-end="url(#arrow-blue)"/>
<rect x="660" y="405" width="110" height="42" rx="7" fill="#ffffff" stroke="#d1d5db" stroke-width="1.5"/>
<text x="715" y="431" text-anchor="middle" class="small">Edit Q&amp;A</text>
<line x1="620" y1="426" x2="660" y2="426" stroke="#2563eb" stroke-width="1.5" fill="none" marker-end="url(#arrow-blue)"/>
<rect x="810" y="405" width="110" height="42" rx="7" fill="#ffffff" stroke="#d1d5db" stroke-width="1.5"/>
<text x="865" y="431" text-anchor="middle" class="small">Summary</text>
<line x1="770" y1="426" x2="810" y2="426" stroke="#2563eb" stroke-width="1.5" fill="none" marker-end="url(#arrow-blue)"/>
<path d="M 585 218 L 415 405" stroke="#2563eb" stroke-width="1.5" fill="none" marker-end="url(#arrow-blue)"/>
<rect x="710" y="520" width="110" height="42" rx="7" fill="#ffffff" stroke="#d1d5db" stroke-width="1.5"/>
<text x="765" y="546" text-anchor="middle" class="small">Session list</text>
<rect x="850" y="520" width="110" height="42" rx="7" fill="#ffffff" stroke="#d1d5db" stroke-width="1.5"/>
<text x="905" y="546" text-anchor="middle" class="small">Compare</text>
<rect x="990" y="520" width="110" height="42" rx="7" fill="#ffffff" stroke="#d1d5db" stroke-width="1.5"/>
<text x="1045" y="546" text-anchor="middle" class="small">Re-practice</text>
<line x1="820" y1="228" x2="765" y2="520" stroke="#16a34a" stroke-width="1.5" fill="none" marker-end="url(#arrow-green)"/>
<line x1="820" y1="541" x2="850" y2="541" stroke="#16a34a" stroke-width="1.5" fill="none" marker-end="url(#arrow-green)"/>
<line x1="960" y1="541" x2="990" y2="541" stroke="#16a34a" stroke-width="1.5" fill="none" marker-end="url(#arrow-green)"/>
<rect x="185" y="575" width="115" height="38" rx="7" fill="#fef2f2" stroke="#fecaca" stroke-width="1.3" stroke-dasharray="5 3"/>
<text x="242" y="599" text-anchor="middle" class="small">Invalid file</text>
<rect x="335" y="575" width="115" height="38" rx="7" fill="#fef2f2" stroke="#fecaca" stroke-width="1.3" stroke-dasharray="5 3"/>
<text x="392" y="599" text-anchor="middle" class="small">AI error</text>
<rect x="485" y="575" width="115" height="38" rx="7" fill="#fef2f2" stroke="#fecaca" stroke-width="1.3" stroke-dasharray="5 3"/>
<text x="542" y="599" text-anchor="middle" class="small">Voice fail</text>
<rect x="635" y="575" width="115" height="38" rx="7" fill="#fef2f2" stroke="#fecaca" stroke-width="1.3" stroke-dasharray="5 3"/>
<text x="692" y="599" text-anchor="middle" class="small">Low audio</text>
<path d="M 265 342 L 242 575" stroke="#dc2626" stroke-width="1.5" fill="none" marker-end="url(#arrow-red)" stroke-dasharray="5 3"/>
<path d="M 565 342 L 392 575" stroke="#dc2626" stroke-width="1.5" fill="none" marker-end="url(#arrow-red)" stroke-dasharray="5 3"/>
<path d="M 715 342 L 542 575" stroke="#dc2626" stroke-width="1.5" fill="none" marker-end="url(#arrow-red)" stroke-dasharray="5 3"/>
<path d="M 565 447 L 692 575" stroke="#dc2626" stroke-width="1.5" fill="none" marker-end="url(#arrow-red)" stroke-dasharray="5 3"/>
<line x1="925" y1="228" x2="960" y2="520" stroke="#9333ea" stroke-width="1.5" fill="none" marker-end="url(#arrow-purple)"/>
<rect x="910" y="520" width="110" height="42" rx="7" fill="#ffffff" stroke="#d1d5db" stroke-width="1.5"/>
<text x="965" y="546" text-anchor="middle" class="small">AI prefs</text>
<line x1="70" y1="650" x2="100" y2="650" stroke="#2563eb" stroke-width="1.5" fill="none" marker-end="url(#arrow-blue)"/>
<text x="108" y="654" text-anchor="start" class="tiny">Main navigation</text>
<line x1="250" y1="650" x2="280" y2="650" stroke="#dc2626" stroke-width="1.5" fill="none" marker-end="url(#arrow-red)" stroke-dasharray="5 3"/>
<text x="288" y="654" text-anchor="start" class="tiny">Recovery route</text>
<line x1="430" y1="650" x2="460" y2="650" stroke="#16a34a" stroke-width="1.5" fill="none" marker-end="url(#arrow-green)"/>
<text x="468" y="654" text-anchor="start" class="tiny">Learning loop</text>
</svg>