<svg xmlns="http://www.w3.org/2000/svg" viewBox="0 0 1200 640" width="1200" height="640">
<style>
text { font-family: 'Helvetica Neue', Helvetica, Arial, 'PingFang SC', 'Microsoft YaHei', sans-serif; }
.title { fill:#111827; font-size:20px; font-weight:600; }
.subtitle { fill:#6b7280; font-size:12px; }
.label { fill:#111827; font-size:13px; font-weight:600; }
.small { fill:#6b7280; font-size:11px; }
.tiny { fill:#6b7280; font-size:10px; }
.cell { fill:#111827; font-size:12px; }
</style>
<defs>
<marker id="arrow-blue" markerWidth="10" markerHeight="7" refX="9" refY="3.5" orient="auto"><polygon points="0 0,10 3.5,0 7" fill="#2563eb"/></marker>
<marker id="arrow-red" markerWidth="10" markerHeight="7" refX="9" refY="3.5" orient="auto"><polygon points="0 0,10 3.5,0 7" fill="#dc2626"/></marker>
<marker id="arrow-green" markerWidth="10" markerHeight="7" refX="9" refY="3.5" orient="auto"><polygon points="0 0,10 3.5,0 7" fill="#16a34a"/></marker>
<marker id="arrow-purple" markerWidth="10" markerHeight="7" refX="9" refY="3.5" orient="auto"><polygon points="0 0,10 3.5,0 7" fill="#9333ea"/></marker>
</defs>
<rect width="1200" height="640" fill="#ffffff"/>
<text x="600" y="34" text-anchor="middle" class="title">Figure D2-3 — Navigation Structure and Page-Jump Matrix</text>
<text x="600" y="56" text-anchor="middle" class="subtitle">Both D1 core workflows are documented with trigger and operational feedback</text>
<rect x="50" y="85" width="220" height="36" rx="0" fill="#eff6ff" stroke="#bfdbfe" stroke-width="1"/>
<text x="160.0" y="109" text-anchor="middle" class="label">From</text>
<rect x="285" y="85" width="220" height="36" rx="0" fill="#eff6ff" stroke="#bfdbfe" stroke-width="1"/>
<text x="395.0" y="109" text-anchor="middle" class="label">To</text>
<rect x="520" y="85" width="220" height="36" rx="0" fill="#eff6ff" stroke="#bfdbfe" stroke-width="1"/>
<text x="630.0" y="109" text-anchor="middle" class="label">User trigger</text>
<rect x="755" y="85" width="390" height="36" rx="0" fill="#eff6ff" stroke="#bfdbfe" stroke-width="1"/>
<text x="950.0" y="109" text-anchor="middle" class="label">Operational feedback</text>
<rect x="50" y="125" width="220" height="40" rx="0" fill="#ffffff" stroke="#e5e7eb" stroke-width="1"/>
<text x="60" y="150" text-anchor="start" class="cell">Dashboard</text>
<rect x="285" y="125" width="220" height="40" rx="0" fill="#ffffff" stroke="#e5e7eb" stroke-width="1"/>
<text x="295" y="150" text-anchor="start" class="cell">Job/JD input</text>
<rect x="520" y="125" width="220" height="40" rx="0" fill="#ffffff" stroke="#e5e7eb" stroke-width="1"/>
<text x="530" y="150" text-anchor="start" class="cell">Start Practice</text>
<rect x="755" y="125" width="390" height="40" rx="0" fill="#ffffff" stroke="#e5e7eb" stroke-width="1"/>
<text x="765" y="150" text-anchor="start" class="cell">Slide; breadcrumb Step 1</text>
<rect x="50" y="165" width="220" height="40" rx="0" fill="#f9fafb" stroke="#e5e7eb" stroke-width="1"/>
<text x="60" y="190" text-anchor="start" class="cell">Job/JD input</text>
<rect x="285" y="165" width="220" height="40" rx="0" fill="#f9fafb" stroke="#e5e7eb" stroke-width="1"/>
<text x="295" y="190" text-anchor="start" class="cell">Resume upload</text>
<rect x="520" y="165" width="220" height="40" rx="0" fill="#f9fafb" stroke="#e5e7eb" stroke-width="1"/>
<text x="530" y="190" text-anchor="start" class="cell">Next after required fields</text>
<rect x="755" y="165" width="390" height="40" rx="0" fill="#f9fafb" stroke="#e5e7eb" stroke-width="1"/>
<text x="765" y="190" text-anchor="start" class="cell">Inline validation; Next enabled</text>
<rect x="50" y="205" width="220" height="40" rx="0" fill="#ffffff" stroke="#e5e7eb" stroke-width="1"/>
<text x="60" y="230" text-anchor="start" class="cell">Resume upload</text>
<rect x="285" y="205" width="220" height="40" rx="0" fill="#ffffff" stroke="#e5e7eb" stroke-width="1"/>
<text x="295" y="230" text-anchor="start" class="cell">Question list</text>
<rect x="520" y="205" width="220" height="40" rx="0" fill="#ffffff" stroke="#e5e7eb" stroke-width="1"/>
<text x="530" y="230" text-anchor="start" class="cell">Generate questions</text>
<rect x="755" y="205" width="390" height="40" rx="0" fill="#ffffff" stroke="#e5e7eb" stroke-width="1"/>
<text x="765" y="230" text-anchor="start" class="cell">Loading; context summary visible</text>
<rect x="50" y="245" width="220" height="40" rx="0" fill="#f9fafb" stroke="#e5e7eb" stroke-width="1"/>
<text x="60" y="270" text-anchor="start" class="cell">Question list</text>
<rect x="285" y="245" width="220" height="40" rx="0" fill="#f9fafb" stroke="#e5e7eb" stroke-width="1"/>
<text x="295" y="270" text-anchor="start" class="cell">Answer page</text>
<rect x="520" y="245" width="220" height="40" rx="0" fill="#f9fafb" stroke="#e5e7eb" stroke-width="1"/>
<text x="530" y="270" text-anchor="start" class="cell">Select question</text>
<rect x="755" y="245" width="390" height="40" rx="0" fill="#f9fafb" stroke="#e5e7eb" stroke-width="1"/>
<text x="765" y="270" text-anchor="start" class="cell">Question status set In progress</text>
<rect x="50" y="285" width="220" height="40" rx="0" fill="#ffffff" stroke="#e5e7eb" stroke-width="1"/>
<text x="60" y="310" text-anchor="start" class="cell">Answer page</text>
<rect x="285" y="285" width="220" height="40" rx="0" fill="#ffffff" stroke="#e5e7eb" stroke-width="1"/>
<text x="295" y="310" text-anchor="start" class="cell">Feedback page</text>
<rect x="520" y="285" width="220" height="40" rx="0" fill="#ffffff" stroke="#e5e7eb" stroke-width="1"/>
<text x="530" y="310" text-anchor="start" class="cell">Submit answer</text>
<rect x="755" y="285" width="390" height="40" rx="0" fill="#ffffff" stroke="#e5e7eb" stroke-width="1"/>
<text x="765" y="310" text-anchor="start" class="cell">Evaluation loading; draft saved</text>
<rect x="50" y="325" width="220" height="40" rx="0" fill="#f9fafb" stroke="#e5e7eb" stroke-width="1"/>
<text x="60" y="350" text-anchor="start" class="cell">Feedback page</text>
<rect x="285" y="325" width="220" height="40" rx="0" fill="#f9fafb" stroke="#e5e7eb" stroke-width="1"/>
<text x="295" y="350" text-anchor="start" class="cell">Question list / History</text>
<rect x="520" y="325" width="220" height="40" rx="0" fill="#f9fafb" stroke="#e5e7eb" stroke-width="1"/>
<text x="530" y="350" text-anchor="start" class="cell">Next / Save</text>
<rect x="755" y="325" width="390" height="40" rx="0" fill="#f9fafb" stroke="#e5e7eb" stroke-width="1"/>
<text x="765" y="350" text-anchor="start" class="cell">Score saved; undo toast</text>
<rect x="50" y="365" width="220" height="40" rx="0" fill="#ffffff" stroke="#e5e7eb" stroke-width="1"/>
<text x="60" y="390" text-anchor="start" class="cell">Dashboard</text>
<rect x="285" y="365" width="220" height="40" rx="0" fill="#ffffff" stroke="#e5e7eb" stroke-width="1"/>
<text x="295" y="390" text-anchor="start" class="cell">Upload recording</text>
<rect x="520" y="365" width="220" height="40" rx="0" fill="#ffffff" stroke="#e5e7eb" stroke-width="1"/>
<text x="530" y="390" text-anchor="start" class="cell">Start Review</text>
<rect x="755" y="365" width="390" height="40" rx="0" fill="#ffffff" stroke="#e5e7eb" stroke-width="1"/>
<text x="765" y="390" text-anchor="start" class="cell">Slide; upload rules shown</text>
<rect x="50" y="405" width="220" height="40" rx="0" fill="#f9fafb" stroke="#e5e7eb" stroke-width="1"/>
<text x="60" y="430" text-anchor="start" class="cell">Upload recording</text>
<rect x="285" y="405" width="220" height="40" rx="0" fill="#f9fafb" stroke="#e5e7eb" stroke-width="1"/>
<text x="295" y="430" text-anchor="start" class="cell">Extracted Q&amp;A</text>
<rect x="520" y="405" width="220" height="40" rx="0" fill="#f9fafb" stroke="#e5e7eb" stroke-width="1"/>
<text x="530" y="430" text-anchor="start" class="cell">Upload valid file</text>
<rect x="755" y="405" width="390" height="40" rx="0" fill="#f9fafb" stroke="#e5e7eb" stroke-width="1"/>
<text x="765" y="430" text-anchor="start" class="cell">Progress indicator; audio check</text>
<rect x="50" y="445" width="220" height="40" rx="0" fill="#ffffff" stroke="#e5e7eb" stroke-width="1"/>
<text x="60" y="470" text-anchor="start" class="cell">Extracted Q&amp;A</text>
<rect x="285" y="445" width="220" height="40" rx="0" fill="#ffffff" stroke="#e5e7eb" stroke-width="1"/>
<text x="295" y="470" text-anchor="start" class="cell">Review summary</text>
<rect x="520" y="445" width="220" height="40" rx="0" fill="#ffffff" stroke="#e5e7eb" stroke-width="1"/>
<text x="530" y="470" text-anchor="start" class="cell">Confirm edited transcript</text>
<rect x="755" y="445" width="390" height="40" rx="0" fill="#ffffff" stroke="#e5e7eb" stroke-width="1"/>
<text x="765" y="470" text-anchor="start" class="cell">Confidence warning if audio low</text>
<rect x="50" y="485" width="220" height="40" rx="0" fill="#f9fafb" stroke="#e5e7eb" stroke-width="1"/>
<text x="60" y="510" text-anchor="start" class="cell">Review summary</text>
<rect x="285" y="485" width="220" height="40" rx="0" fill="#f9fafb" stroke="#e5e7eb" stroke-width="1"/>
<text x="295" y="510" text-anchor="start" class="cell">History / Practice</text>
<rect x="520" y="485" width="220" height="40" rx="0" fill="#f9fafb" stroke="#e5e7eb" stroke-width="1"/>
<text x="530" y="510" text-anchor="start" class="cell">Save / Practice weak areas</text>
<rect x="755" y="485" width="390" height="40" rx="0" fill="#f9fafb" stroke="#e5e7eb" stroke-width="1"/>
<text x="765" y="510" text-anchor="start" class="cell">Summary saved; weak-area path opened</text>
<rect x="50" y="525" width="220" height="40" rx="0" fill="#ffffff" stroke="#e5e7eb" stroke-width="1"/>
<text x="60" y="550" text-anchor="start" class="cell">Any task page</text>
<rect x="285" y="525" width="220" height="40" rx="0" fill="#ffffff" stroke="#e5e7eb" stroke-width="1"/>
<text x="295" y="550" text-anchor="start" class="cell">History / Settings</text>
<rect x="520" y="525" width="220" height="40" rx="0" fill="#ffffff" stroke="#e5e7eb" stroke-width="1"/>
<text x="530" y="550" text-anchor="start" class="cell">Sidebar click</text>
<rect x="755" y="525" width="390" height="40" rx="0" fill="#ffffff" stroke="#e5e7eb" stroke-width="1"/>
<text x="765" y="550" text-anchor="start" class="cell">Warn if unsaved draft exists</text>
<rect x="50" y="590" width="360" height="30" rx="6" fill="#f0fdf4" stroke="#bbf7d0" stroke-width="1.5"/>
<text x="230" y="610" text-anchor="middle" class="small">Navigation evidence is in the report, not dependent on tabs 1 or 2</text>
</svg>