<svg xmlns="http://www.w3.org/2000/svg" viewBox="0 0 960 280" width="960">

  <style>
    text { font-family: -apple-system, BlinkMacSystemFont, "Helvetica Neue", Arial, "PingFang SC", sans-serif; }
    .t { fill: #111827; font-size: 14px; }
    .st { fill: #6b7280; font-size: 11px; }
    .ttl { fill: #111827; font-size: 18px; font-weight: 600; }
    .sub { fill: #111827; font-size: 13px; font-weight: 600; }
  </style>


  <defs>
    <marker id="arrB" markerWidth="10" markerHeight="7" refX="9" refY="3.5" orient="auto">
      <polygon points="0 0, 10 3.5, 0 7" fill="#2563eb"/>
    </marker>
    <marker id="arrR" markerWidth="10" markerHeight="7" refX="9" refY="3.5" orient="auto">
      <polygon points="0 0, 10 3.5, 0 7" fill="#dc2626"/>
    </marker>
    <marker id="arrG" markerWidth="10" markerHeight="7" refX="9" refY="3.5" orient="auto">
      <polygon points="0 0, 10 3.5, 0 7" fill="#059669"/>
    </marker>
  </defs>

<rect width="10000" height="10000" x="-5000" y="-5000" fill="#ffffff"/>
<text x="480" y="36" text-anchor="middle" class="ttl">Figure D2-6 — Key prototype screens (core path)</text>
<text x="480" y="58" text-anchor="middle" class="st">Prototype tab — core path (left to right)</text>
<rect x="40" y="100" width="160" height="100" rx="10" fill="#ffffff" stroke="#2563eb" stroke-width="1.5"/><text x="120" y="145" text-anchor="middle" class="sub">Dashboard</text><text x="120" y="168" text-anchor="middle" class="st">entry</text><line x1="200" y1="150" x2="215" y2="150" stroke="#2563eb" stroke-width="2" marker-end="url(#arrB)"/><rect x="215" y="100" width="160" height="100" rx="10" fill="#ffffff" stroke="#2563eb" stroke-width="1.5"/><text x="295" y="145" text-anchor="middle" class="sub">Practice</text><text x="295" y="168" text-anchor="middle" class="st">job→resume</text><line x1="375" y1="150" x2="390" y2="150" stroke="#2563eb" stroke-width="2" marker-end="url(#arrB)"/><rect x="390" y="100" width="160" height="100" rx="10" fill="#ffffff" stroke="#2563eb" stroke-width="1.5"/><text x="470" y="145" text-anchor="middle" class="sub">Questions</text><text x="470" y="168" text-anchor="middle" class="st">AI list</text><line x1="550" y1="150" x2="565" y2="150" stroke="#2563eb" stroke-width="2" marker-end="url(#arrB)"/><rect x="565" y="100" width="160" height="100" rx="10" fill="#ffffff" stroke="#2563eb" stroke-width="1.5"/><text x="645" y="145" text-anchor="middle" class="sub">Answer</text><text x="645" y="168" text-anchor="middle" class="st">text/voice</text><line x1="725" y1="150" x2="740" y2="150" stroke="#2563eb" stroke-width="2" marker-end="url(#arrB)"/><rect x="740" y="100" width="160" height="100" rx="10" fill="#ffffff" stroke="#2563eb" stroke-width="1.5"/><text x="820" y="145" text-anchor="middle" class="sub">Feedback</text><text x="820" y="168" text-anchor="middle" class="st">scores</text><text x="480" y="240" text-anchor="middle" class="st">High-fidelity click-through · index.html Prototype tab</text>
</svg>